<!--?xml version="1.0" encoding="utf-8"?-->
<!-- Generator: Adobe Illustrator 18.1.1, SVG Export Plug-In . SVG Version: 6.00 Build 0)  -->

<svg version="1.1" id="_x31_0" xmlns="http://www.w3.org/2000/svg" xmlns:xlink="http://www.w3.org/1999/xlink" x="0px" y="0px" viewBox="0 0 512 512" style="width: 256px; height: 256px; opacity: 1;" xml:space="preserve">
<style type="text/css">
	.st0{fill:#374149;}
</style>
<g>
	<path class="st0" d="M395.64,0H116.36C88.547,0,65.918,22.625,65.918,50.442v411.117c0,27.813,22.629,50.442,50.442,50.442H395.64
		c27.813,0,50.442-22.629,50.442-50.442V50.442C446.082,22.625,423.453,0,395.64,0z M380.91,73.726v79.344H132.453h-1.363V73.726
		h249.214H380.91z M190.082,445.492h-57.746h-0.195v-46.609h57.942V445.492z M190.082,368.293H132.14v-46.61h57.942V368.293z
		 M190.082,291.098h-57.926h-0.016v-46.61h57.942V291.098z M284.968,445.492h-57.746h-0.195v-46.609h57.941V445.492z
		 M284.968,368.293h-57.941v-46.61h57.941V368.293z M284.968,291.098h-57.922h-0.019v-46.61h57.941V291.098z M379.86,445.492h-57.75
		h-0.191v-46.609h57.942V445.492z M379.86,368.293h-57.942v-46.61h57.942V368.293z M379.86,291.098h-57.926h-0.016v-46.61h57.942
		V291.098z M404.605,213.652H108.14l-0.746-0.003V197.57h297.21V213.652z" style="fill: rgb(0, 0, 0);"></path>
</g>
</svg>
