<svg xmlns="http://www.w3.org/2000/svg" width="30" height="30" viewBox="0 0 30 30">
  <g id="グループ_314" data-name="グループ 314" transform="translate(17047 5288)">
    <path id="love" d="M14.506,4a5.908,5.908,0,0,0-4.3,1.868A5.9,5.9,0,0,0,0,9.9c0,5.873,9.472,11.637,9.883,11.863a.638.638,0,0,0,.657,0C10.932,21.535,20.4,15.771,20.4,9.9a5.9,5.9,0,0,0-5.9-5.9ZM10.2,20.464C8.554,19.412,1.275,14.5,1.275,9.9a4.623,4.623,0,0,1,8.4-2.656.638.638,0,0,0,1.043,0A4.623,4.623,0,0,1,19.129,9.9C19.129,14.492,11.851,19.409,10.2,20.464Z" transform="translate(-17042.5 -5285.5)" stroke="#000" stroke-width="1"/>
    <rect id="長方形_139" data-name="長方形 139" width="30" height="30" transform="translate(-17047 -5288)" opacity="0"/>
  </g>
</svg>
