<svg xmlns="http://www.w3.org/2000/svg" width="24" height="24" viewBox="0 0 24 24">
  <g id="グループ_310" data-name="グループ 310" transform="translate(17104 5670)">
    <rect id="長方形_131" data-name="長方形 131" width="24" height="24" transform="translate(-17104 -5670)" fill="#fff" opacity="0"/>
    <g id="email_2_" data-name="email (2)" transform="translate(-17102.5 -5727)">
      <g id="グループ_288" data-name="グループ 288" transform="translate(1.055 61)">
        <g id="グループ_287" data-name="グループ 287">
          <path id="パス_223" data-name="パス 223" d="M43.825,61H26.512a1.825,1.825,0,0,0-.791.185l9.406,9.406,2.108-2.026h0l7.38-7.38A1.825,1.825,0,0,0,43.825,61Z" transform="translate(-25.721 -61)"/>
        </g>
      </g>
      <g id="グループ_290" data-name="グループ 290" transform="translate(13.875 62.056)">
        <g id="グループ_289" data-name="グループ 289">
          <path id="パス_224" data-name="パス 224" d="M345.158,86.728l-6.945,6.945,6.945,6.945a1.824,1.824,0,0,0,.185-.791V87.519A1.825,1.825,0,0,0,345.158,86.728Z" transform="translate(-338.213 -86.728)"/>
        </g>
      </g>
      <g id="グループ_292" data-name="グループ 292" transform="translate(0 62.055)">
        <g id="グループ_291" data-name="グループ 291">
          <path id="パス_225" data-name="パス 225" d="M.185,86.721A1.825,1.825,0,0,0,0,87.512V99.82a1.825,1.825,0,0,0,.185.791L7.13,93.666Z" transform="translate(0 -86.721)"/>
        </g>
      </g>
      <g id="グループ_294" data-name="グループ 294" transform="translate(1.055 69.87)">
        <g id="グループ_293" data-name="グループ 293">
          <path id="パス_226" data-name="パス 226" d="M37.664,277.211l-2.109,2.026a.615.615,0,0,1-.87,0l-2.027-2.026-6.945,6.945a1.825,1.825,0,0,0,.791.185H43.818a1.825,1.825,0,0,0,.791-.185Z" transform="translate(-25.714 -277.211)"/>
        </g>
      </g>
    </g>
  </g>
</svg>
