<?xml version="1.0" encoding="UTF-8"?>
<svg id="_10" data-name="10" xmlns="http://www.w3.org/2000/svg" viewBox="0 0 512 489.3">
  <defs>
    <style>
      .cls-1 {
        fill: #4b4b4b;
      }
    </style>
  </defs>
  <polygon class="cls-1" points="257.1 82.9 257.1 83 340.3 83 340.3 193.4 376.4 193.4 376.4 47.6 376.4 47.1 376.4 47.1 376.4 47 257.1 47 257.1 82.8 257.1 82.9"/>
  <polygon class="cls-1" points="376.4 296 376.4 295.8 340.3 295.8 340.3 406.2 257.1 406.2 257.1 441.9 257.1 442.1 257.1 442.1 257.1 442.2 376.4 442.2 376.4 296.4 376.4 296"/>
  <path class="cls-1" d="M509.6,239.7l-84.7-64.1c-1.1-.9-2.4-1.2-3.7-1.2-3.2,0-6.2,2.5-6.2,6.2v27.3c0,3.4-2.8,6.2-6.2,6.2h-87.2c-3.4,0-6.1,2.7-6.1,6.1v48.9c0,3.4,2.7,6.1,6.1,6.1h87.2c3.4,0,6.2,2.8,6.2,6.2v27.3c0,3.7,3,6.2,6.2,6.2,1.2,0,2.5-.4,3.7-1.2l84.7-64.1c3.2-2.6,3.2-7.4,0-9.9Z"/>
  <path class="cls-1" d="M204.7,0c-2.4,.1-4.9,.4-7.5,1.1L38.3,47l-10.3,3-12.2,3.5C6.4,56.2,0,64.8,0,74.7V414.6c0,9.8,6.4,18.4,15.9,21.2l12.2,3.5,10.3,3,158.8,45.9c2.5,.7,5.1,1.1,7.5,1.1,14.3,0,26.7-11.6,26.7-26.8V26.8c-.1-15.2-12.5-26.8-26.7-26.8Zm-45.2,266v-42.7c0-2.8,2.3-5,5.1-5h16.7c2.8,0,5,2.2,5,5v42.7c0,2.8-2.2,5-5,5h-16.7c-2.8,0-5.1-2.3-5.1-5Z"/>
</svg>