<!--?xml version="1.0" encoding="utf-8"?-->
<!-- Generator: Adobe Illustrator 19.1.1, SVG Export Plug-In . SVG Version: 6.00 Build 0)  -->
<svg version="1.1" id="_x31_0" xmlns="http://www.w3.org/2000/svg" xmlns:xlink="http://www.w3.org/1999/xlink" x="0px" y="0px" viewBox="0 0 512 512" style="width: 256px; height: 256px; opacity: 1;" xml:space="preserve">
<style type="text/css">
	.st0{fill:#374149;}
</style>
<g>
	<path class="st0" d="M469.789,368.34V123.91c0-19.554-15.851-35.398-35.406-35.398H77.617c-19.554,0-35.402,15.844-35.402,35.398
		v244.43H0v4.383c0,28.023,22.715,50.766,50.766,50.766h410.446c28.05,0,50.789-22.742,50.789-50.766v-4.383H469.789z M288,399.136
		c0,2.375-1.906,4.25-4.274,4.25H228.25c-2.344,0-4.25-1.875-4.25-4.25v-6.453c0-2.367,1.906-4.274,4.25-4.274h55.476
		c2.367,0,4.274,1.906,4.274,4.274V399.136z M434.383,368.34H77.617V123.91h356.766V368.34z" style="fill: rgb(0, 0, 0);"></path>
	<path class="st0" d="M50.766,423.329c-27.904,0-50.606-22.702-50.606-50.606v-4.383l42.055,0.161l0.16-244.59
		c0-19.43,15.81-35.238,35.242-35.238h356.766c19.434,0,35.246,15.809,35.246,35.238v244.43L512,368.501l-0.16,4.222
		c0,27.904-22.712,50.606-50.629,50.606H50.766z M228.25,388.251c-2.432,0-4.41,1.988-4.41,4.434v6.453
		c0,2.432,1.978,4.41,4.41,4.41h55.476c2.486,0,4.434-1.938,4.434-4.41v-6.453c0-2.446-1.989-4.434-4.434-4.434H228.25z
		 M77.457,368.34l356.926,0.161l0.16-244.59l-357.086-0.16V368.34z" style="fill: rgb(0, 0, 0);"></path>
	<path class="st0" d="M132.65,307.773l17.83,1.193c2.681,0.109,5.364,0.16,8.046,0.246c1.31,0.044,2.617,0.084,3.925,0.122
		c5.272,0.152,10.539,0.26,15.811,0.327c1.508,0.019,3.01,0.034,4.512,0.047c2.546,0.02,5.096,0.079,7.642,0.079
		c13.218,0,26.438-0.259,39.634-0.822l17.829-1.172c0.825-0.042,1.453-0.757,1.365-1.558c-0.41-3.901-1.538-9.422-2.275-13.172
		c-0.13-0.736-0.931-1.733-2.21-2.926c-9.513-8.883-35.575-24.483-37.419-24.896h-0.627h-0.151v-15.362
		c0.189-0.107,0.338-0.265,0.514-0.39c0.106-0.077,0.211-0.158,0.321-0.245c3.29-2.665,4.199-8.371,4.456-10.21
		c0.016-0.095,0.038-0.173,0.051-0.27c0.451,0.15,0.902,0.214,1.29,0.214c4.657,0,5.394-9.489,5.676-12.003
		c0.262-2.514-0.844-4.291-1.646-4.963c0.196-0.412,0.41-0.997,0.627-1.712c0.542-1.775,1.042-4.334,1.235-7.043
		c0.283-3.964-0.063-8.277-1.949-10.941c-0.65-0.934-1.669-2.103-2.84-3.273c-2.709-2.689-6.261-5.418-8.342-5.418
		c-3.379-6.066-7.693-10.011-15.667-10.533c-0.477-0.042-0.974-0.042-1.495-0.064h-0.108c-6.63,0-17.898,7.867-22.406,16.014
		c-4.506,8.126-5.85,11.072-3.575,21.257c0.218,0.715,0.434,1.3,0.651,1.712c-0.804,0.672-1.907,2.45-1.648,4.963
		c0.259,2.514,0.997,12.003,5.654,12.003c0.413,0,0.846-0.063,1.322-0.215c0.109,0.823,0.521,3.098,1.365,5.416
		c0.847,2.342,2.104,4.702,3.945,5.7v5.283l-0.148,9.904l-0.003,0.175h-0.002h-0.626c-1.821,0.413-27.862,16.013-37.396,24.896
		c-1.302,1.194-2.082,2.19-2.233,2.926c-0.736,3.75-1.862,9.25-2.275,13.15C131.22,307.016,131.85,307.73,132.65,307.773z" style="fill: rgb(0, 0, 0);"></path>
	<path class="st0" d="M178.264,309.503c-5.271-0.069-10.538-0.176-15.808-0.328l-11.97-0.37l-17.826-1.193
		c-0.346-0.018-0.674-0.18-0.902-0.447c-0.225-0.266-0.33-0.596-0.293-0.934c0.371-3.504,1.337-8.395,2.042-11.965l0.231-1.172
		c0.141-0.684,0.875-1.639,2.185-2.84c9.514-8.863,35.696-24.49,37.322-24.858h0.156l0.601-0.328l0.147-9.904v-5.286
		c-1.602-0.965-2.904-2.854-3.954-5.756c-0.803-2.205-1.23-4.42-1.356-5.382c-0.648,0.01-1.065,0.078-1.482,0.078
		c-4.314,0-5.177-8.656-5.46-11.502c-0.297-2.897,0.842-4.584,1.556-5.182c-0.174-0.603-0.387-1.18-0.6-1.883
		c-2.243-10.038-1.022-12.869,3.562-21.13c4.366-7.893,15.602-15.934,22.266-15.934l1.59,0.064
		c7.07,0.462,11.718,3.588,15.542,10.451c2.22,0.082,5.873,2.975,8.369,5.454c1.162,1.16,2.175,2.322,2.822,3.25
		c2.022,2.858,2.16,7.471,1.921,10.838c-0.177,2.476-0.625,5.031-1.23,7.007c-0.214,0.706-0.426,1.286-0.618,1.692
		c0.757,0.789,1.896,2.478,1.632,5.015c-0.349,3.283-1.256,11.859-5.517,11.859c-0.405,0-0.834-0.07-1.239-0.206
		c-0.934,5.226-2.455,8.722-4.658,10.507l-0.894,0.76v15.362l0.938,0.16c1.596,0.362,27.805,15.977,37.311,24.854
		c1.32,1.232,2.046,2.187,2.161,2.836l0.204,1.037c0.716,3.619,1.696,8.576,2.07,12.125c0.037,0.336-0.066,0.666-0.29,0.928
		c-0.23,0.271-0.566,0.436-0.924,0.454l-17.83,1.171c-12.75,0.546-26.082,0.822-39.623,0.822L178.264,309.503z" style="fill: rgb(0, 0, 0);"></path>
	<path class="st0" d="M296.289,213.513h82.354c1.138,0,2.059-0.922,2.059-2.058v-10.514c0-1.137-0.922-2.058-2.059-2.058h-82.354
		c-1.137,0-2.058,0.922-2.058,2.058v10.514C294.23,212.592,295.152,213.513,296.289,213.513z" style="fill: rgb(0, 0, 0);"></path>
	<path class="st0" d="M296.289,213.354c-1.046,0-1.898-0.851-1.898-1.898v-10.514c0-1.046,0.852-1.898,1.898-1.898h82.354
		c1.047,0,1.898,0.852,1.898,1.898v10.514c0,1.047-0.851,1.898-1.898,1.898H296.289z" style="fill: rgb(0, 0, 0);"></path>
	<path class="st0" d="M296.289,253.724h82.354c1.138,0,2.059-0.922,2.059-2.059v-10.514c0-1.137-0.922-2.058-2.059-2.058h-82.354
		c-1.137,0-2.058,0.922-2.058,2.058v10.514C294.23,252.802,295.152,253.724,296.289,253.724z" style="fill: rgb(0, 0, 0);"></path>
	<path class="st0" d="M296.289,253.564c-1.046,0-1.898-0.852-1.898-1.898v-10.514c0-1.046,0.852-1.898,1.898-1.898h82.354
		c1.047,0,1.898,0.852,1.898,1.898v10.514c0,1.046-0.851,1.898-1.898,1.898H296.289z" style="fill: rgb(0, 0, 0);"></path>
	<path class="st0" d="M296.289,293.935h82.354c1.138,0,2.059-0.922,2.059-2.059v-10.514c0-1.137-0.922-2.059-2.059-2.059h-82.354
		c-1.137,0-2.058,0.922-2.058,2.059v10.514C294.23,293.012,295.152,293.935,296.289,293.935z" style="fill: rgb(0, 0, 0);"></path>
	<path class="st0" d="M296.289,293.774c-1.046,0-1.898-0.851-1.898-1.898v-10.514c0-1.046,0.852-1.898,1.898-1.898h82.354
		c1.047,0,1.898,0.852,1.898,1.898v10.514c0,1.047-0.851,1.898-1.898,1.898H296.289z" style="fill: rgb(0, 0, 0);"></path>
</g>
</svg>
