<!--?xml version="1.0" encoding="utf-8"?-->
<!-- Generator: Adobe Illustrator 18.1.1, SVG Export Plug-In . SVG Version: 6.00 Build 0)  -->

<svg version="1.1" id="_x31_0" xmlns="http://www.w3.org/2000/svg" xmlns:xlink="http://www.w3.org/1999/xlink" x="0px" y="0px" viewBox="0 0 512 512" style="width: 256px; height: 256px; opacity: 1;" xml:space="preserve">
<style type="text/css">
	.st0{fill:#374149;}
</style>
<g>
	<path class="st0" d="M488.053,127.504c-9.633-25.438-34.781-47.039-61.48-52.586l-1.75-0.32
		c-58.778-9.539-114.004-14.172-168.813-14.172c-54.828,0-110.051,4.633-169.122,14.226l-1.769,0.328
		c-26.383,5.481-51.504,27-61.063,52.242c-32.043,83.035-32.07,174.43-0.109,257.274c9.64,25.449,34.801,47.05,61.5,52.59
		l1.738,0.317c58.766,9.531,113.996,14.171,168.844,14.171c54.789,0,110.004-4.633,169.078-14.218l1.789-0.332
		c26.375-5.488,51.496-27.008,61.047-52.25C519.987,301.723,520.014,210.328,488.053,127.504z M256.022,430.989v-7.5
		c-53.317-0.004-107.074-4.519-164.047-13.766l-1.137-0.203c-16.942-3.516-34.402-18.554-40.656-35.054
		C20.709,298.062,20.74,213.848,50.29,137.254c6.172-16.305,23.602-31.254,40.23-34.71l1.165-0.219
		c57.27-9.293,111.019-13.813,164.324-13.813c53.29,0,107.039,4.52,164.028,13.766l1.141,0.202
		c16.937,3.52,34.39,18.555,40.64,35.055c29.473,76.383,29.446,160.598-0.109,237.211c-6.172,16.301-23.594,31.254-40.207,34.711
		l-1.18,0.218c-57.285,9.294-111.027,13.813-164.293,13.813l-0.004,7.043L256.022,430.989z" style="fill: rgb(0, 0, 0);"></path>
	<path class="st0" d="M414.885,379.27c6.618-1.374,15.531-9.133,18.028-15.726c26.758-69.359,26.758-145.742-0.024-215.153
		c-2.473-6.527-11.386-14.285-17.515-15.57c-55.63-9.023-107.762-13.41-159.364-13.41c-51.621,0-103.746,4.386-158.887,13.32
		c-6.617,1.375-15.538,9.133-18.035,15.73c-26.762,69.34-26.762,145.723,0.024,215.145c2.473,6.531,11.394,14.29,17.519,15.57
		c55.633,9.024,107.766,13.41,159.391,13.414c0,0,0.004,0,0.008,0C307.627,392.59,359.752,388.2,414.885,379.27z M208.658,204.34
		c0.246-10.618,9.007-19.25,19.527-19.25c3.328,0,6.621,0.891,9.543,2.594l14.91,8.734c26.227,15.374,43.555,25.531,73.852,42.839
		c6.031,3.43,9.785,9.84,9.785,16.742c0,6.898-3.754,13.317-9.766,16.73c-30.113,17.184-48.246,27.801-73.343,42.497l-15.387,9.007
		c-2.93,1.734-6.266,2.653-9.641,2.653c-10.492,0-19.234-8.625-19.48-19.234C207.705,266.137,207.705,245.863,208.658,204.34z" style="fill: rgb(0, 0, 0);"></path>
</g>
</svg>
